# xmcd CD database file
#
# Track frame offsets:
#	150
#	14531
#	45494
#	62030
#	78491
#	94580
#	117640
#	138834
#	160922
#
# Disc length: 2461 seconds
#
# Revision: 0
# Processed by: cddbd v1.5.2PL0 Copyright (c) Steve Scherf et al.
# Submitted via: CDex 1.70beta2
#
DISCID=70099b09
DTITLE=石野見幸 - Ｃｕｒｒｅｎｔ
DYEAR=2006
DGENRE=Jazz
TTITLE0=Ｉ’ｖｅ　Ｓｅｅｎ　Ｔｈａｔ　Ｆａｃｅ　Ｂｅｆｏｒｅ（ＬＩＢＥＲＴＡＮＧＯ）
TTITLE1=Ｉ’ｍ　Ａ　Ｆｏｏｌ　Ｔｏ　Ｗａｎｔ　Ｙｏｕ
TTITLE2=Ｇｏｏｄｙ！Ｇｏｏｄｙ！
TTITLE3=粋な別れ
TTITLE4=Ｃｏｒａｃａｏ　Ｖａｇａｂｕｎｄｏ
TTITLE5=Ｆｏｒｇｏｔｔｅｎ　Ｄｏｌｌ（人形の家）
TTITLE6=Ｙｏｕ’ｖｅ　Ｇｏｔ　Ａ　Ｆｒｉｅｎｄ
TTITLE7=Ｔｅａｃｈ　Ｍｅ　Ｔｏｎｉｇｈｔ
TTITLE8=ＬＯＶＥ
EXTD=YEAR: 2006
EXTT0=
EXTT1=
EXTT2=
EXTT3=
EXTT4=
EXTT5=
EXTT6=
EXTT7=
EXTT8=
PLAYORDER=
